<?xml version="1.0" encoding="UTF-8"?>
<svg id="Capa_1" xmlns="http://www.w3.org/2000/svg" version="1.1" viewBox="0 0 595.28 321.48">
  <!-- Generator: Adobe Illustrator 29.5.1, SVG Export Plug-In . SVG Version: 2.1.0 Build 141)  -->
  <defs>
    <style>
      .st0 {
        fill: #51b690;
      }

      .st1 {
        fill: #8b8b8c;
      }
    </style>
  </defs>
  <path d="M202.82,169.52v-61h-16.15v-12.55h49.9v12.55h-18.75v61h-15Z"/>
  <g>
    <path class="st1" d="M323.88,263.57l-30.78-71.01h3.73l28.58,66.06h.48l28.19-66.06h3.82l-30.87,71.01h-3.15Z"/>
    <path class="st1" d="M374.05,263.57v-48.74h3.35v48.74h-3.35Z"/>
    <path class="st1" d="M416.68,264.33c-1.85,0-3.92-.05-6.21-.14-2.29-.09-4.56-.22-6.78-.38-2.23-.16-4.27-.33-6.12-.52v-3.15c2.87.26,5.22.46,7.07.62,1.85.16,3.44.27,4.78.33,1.34.06,2.66.11,3.97.14,1.31.03,2.92.05,4.83.05,4.21,0,7.33-.3,9.37-.91,2.04-.6,3.38-1.67,4.01-3.2.64-1.53.96-3.63.96-6.31,0-2.93-.26-5.05-.76-6.36-.51-1.31-1.37-2.16-2.58-2.58-1.21-.41-2.9-.68-5.06-.81l-16.44-1.34c-3.19-.25-5.64-.76-7.36-1.53s-2.9-1.96-3.54-3.58c-.64-1.62-.96-3.87-.96-6.74,0-3.31.44-5.91,1.34-7.79.89-1.88,2.21-3.25,3.97-4.11,1.75-.86,3.92-1.4,6.5-1.62,2.58-.22,5.56-.33,8.94-.33,1.59,0,3.33.05,5.21.14,1.88.1,3.77.22,5.69.38,1.91.16,3.66.37,5.26.62v3.15c-2.36-.38-4.44-.65-6.26-.81-1.82-.16-3.63-.27-5.45-.33-1.81-.06-3.93-.1-6.36-.1-3.06,0-5.75.13-8.08.38-2.33.26-4.14,1.08-5.45,2.48-1.31,1.4-1.96,3.82-1.96,7.26,0,2.55.25,4.44.76,5.69.51,1.24,1.4,2.07,2.68,2.48,1.27.41,3.03.72,5.26.91l15.67,1.34c3.31.26,5.86.72,7.65,1.39s3.01,1.9,3.68,3.68c.67,1.78,1,4.49,1,8.12,0,2.93-.37,5.3-1.1,7.12s-1.86,3.17-3.39,4.06c-1.53.89-3.51,1.5-5.93,1.82-2.42.32-5.35.48-8.79.48Z"/>
    <path class="st1" d="M454.33,263.57v-48.74h3.35v48.74h-3.35Z"/>
    <path class="st1" d="M500.4,264.33c-4.46,0-8.14-.21-11.04-.62-2.9-.41-5.18-1.15-6.83-2.2-1.66-1.05-2.88-2.53-3.68-4.44-.8-1.91-1.29-4.32-1.48-7.22-.19-2.9-.29-6.42-.29-10.56s.1-7.68.29-10.61c.19-2.93.68-5.35,1.48-7.26.8-1.91,2.02-3.39,3.68-4.44,1.66-1.05,3.93-1.8,6.83-2.25,2.9-.44,6.58-.67,11.04-.67s8.14.22,11.04.67c2.9.45,5.17,1.2,6.83,2.25,1.66,1.05,2.88,2.53,3.68,4.44.8,1.91,1.29,4.33,1.48,7.26.19,2.93.29,6.47.29,10.61s-.1,7.66-.29,10.56c-.19,2.9-.68,5.3-1.48,7.22-.8,1.91-2.02,3.39-3.68,4.44-1.66,1.05-3.93,1.78-6.83,2.2-2.9.41-6.58.62-11.04.62ZM500.4,261.28c4.97,0,8.82-.29,11.56-.86,2.74-.57,4.7-1.62,5.88-3.15,1.18-1.53,1.9-3.74,2.15-6.64.25-2.9.38-6.67.38-11.33s-.13-8.44-.38-11.37c-.26-2.93-.97-5.17-2.15-6.74-1.18-1.56-3.14-2.63-5.88-3.2-2.74-.57-6.59-.86-11.56-.86s-8.83.29-11.56.86c-2.74.57-4.7,1.64-5.88,3.2-1.18,1.56-1.9,3.81-2.15,6.74-.26,2.93-.38,6.72-.38,11.37s.13,8.43.38,11.33c.25,2.9.97,5.11,2.15,6.64,1.18,1.53,3.14,2.58,5.88,3.15,2.74.57,6.59.86,11.56.86Z"/>
    <path class="st1" d="M543.12,263.57v-48.74h2.77l.19,8.22h.38c.64-1.59,1.62-3.06,2.96-4.4,1.34-1.34,3.36-2.44,6.07-3.3,2.71-.86,6.39-1.29,11.04-1.29,4.4,0,7.95.35,10.66,1.05,2.71.7,4.76,1.8,6.17,3.3s2.34,3.44,2.82,5.83c.48,2.39.72,5.3.72,8.74v30.58h-3.34v-30.11c0-3.57-.22-6.42-.67-8.55-.45-2.13-1.31-3.77-2.58-4.92-1.28-1.15-3.06-1.91-5.35-2.29-2.29-.38-5.32-.57-9.08-.57-4.84,0-8.6.54-11.28,1.63-2.68,1.08-4.59,2.6-5.73,4.54-1.15,1.94-1.83,4.21-2.05,6.78-.22,2.58-.33,5.34-.33,8.27v25.23h-3.35Z"/>
  </g>
  <path class="st0" d="M109.58,164.64v-73.41s35.43-1.22,38.51-1.22c4.9,0,9.01.64,12.33,1.9,3.32,1.27,5.98,3.4,8,6.39,2.02,2.99,3.51,7.07,4.47,12.25.96,5.17,1.44,11.62,1.44,19.32s-.46,14.3-1.37,19.47c-.91,5.17-2.36,9.26-4.33,12.25-1.97,2.99-4.59,5.15-7.86,6.47-3.27,1.32-7.36,1.98-12.26,1.98-3.46,0-6.63-.3-9.52-.91-2.88-.61-5.43-1.65-7.64-3.12-2.21-1.47-4.04-3.58-5.48-6.31h-1.01l11.99,19.99,3,34.7-30.28-49.74ZM141.74,155.59c3.84,0,6.9-.28,9.16-.84,2.26-.56,3.97-1.67,5.12-3.35,1.15-1.67,1.92-4.21,2.31-7.61.38-3.4.58-7.99.58-13.77s-.19-10.37-.58-13.77c-.38-3.4-1.15-5.96-2.31-7.68-1.15-1.72-2.86-2.87-5.12-3.42-2.26-.56-5.31-.84-9.16-.84-4.04,0-7.21.61-9.52,1.83-2.31,1.22-4.04,3.04-5.19,5.48-.96,2.13-1.56,4.74-1.8,7.84-.24,3.1-.36,6.62-.36,10.58s.12,7.58.36,10.57c.24,2.99.79,5.5,1.66,7.53,1.15,2.64,2.91,4.54,5.26,5.71,2.36,1.17,5.55,1.75,9.59,1.75Z"/>
  <path d="M46.92,170.68c-7.88,0-14.37-.46-19.47-1.37-5.1-.91-9.14-2.47-12.11-4.69-2.98-2.21-5.15-5.24-6.49-9.09-1.35-3.84-2.21-8.68-2.6-14.49-.38-5.82-.58-12.86-.58-21.13s.19-15.31.58-21.13c.38-5.82,1.25-10.65,2.6-14.49,1.35-3.84,3.51-6.87,6.49-9.09,2.98-2.21,7.02-3.77,12.11-4.69,5.09-.91,11.58-1.37,19.47-1.37s14.4.46,19.54,1.37c5.14.91,9.2,2.48,12.19,4.69,2.98,2.21,5.17,5.24,6.56,9.09,1.39,3.85,2.28,8.68,2.67,14.49.38,5.82.58,12.86.58,21.13s-.19,15.31-.58,21.13c-.38,5.82-1.27,10.65-2.67,14.49-1.39,3.85-3.58,6.88-6.56,9.09-2.98,2.21-7.04,3.77-12.19,4.69-5.15.91-11.66,1.37-19.54,1.37ZM46.92,156.83c4.81,0,8.77-.14,11.9-.43,3.12-.29,5.57-1.01,7.36-2.16,1.78-1.15,3.1-3.05,3.97-5.7.86-2.64,1.42-6.25,1.66-10.82.24-4.57.36-10.5.36-17.81s-.12-13.24-.36-17.81c-.24-4.57-.79-8.17-1.66-10.82-.86-2.64-2.19-4.54-3.97-5.7-1.78-1.15-4.23-1.88-7.36-2.16-3.13-.29-7.09-.43-11.9-.43s-8.61.14-11.68.43c-3.08.29-5.53,1.01-7.36,2.16-1.83,1.15-3.15,3.05-3.97,5.7-.82,2.65-1.35,6.25-1.59,10.82-.24,4.57-.36,10.51-.36,17.81s.12,13.25.36,17.81c.24,4.57.77,8.17,1.59,10.82.82,2.65,2.14,4.54,3.97,5.7,1.83,1.15,4.28,1.87,7.36,2.16,3.08.29,6.97.43,11.68.43Z"/>
  <path d="M253,169.52v-73.55h15.14v73.55h-15.14Z"/>
  <path d="M295.4,169.52v-99.22h21.49l33.46,74.56h.72l33.31-74.56h21.49v99.22h-15.72v-74.85h-.43l-33.46,74.85h-11.97l-33.17-74.85h-.58v74.85h-15.14Z"/>
  <path d="M453.46,170.68c-5.38,0-9.9-.64-13.56-1.92-3.65-1.28-6.42-3.46-8.29-6.54-1.88-3.08-2.81-7.32-2.81-12.73s.7-9.88,2.09-13.15c1.39-3.27,3.82-5.62,7.28-7.04,3.46-1.42,8.31-2.13,14.57-2.13,1.06,0,2.62.02,4.69.07,2.07.05,4.47.1,7.21.14,2.74.05,5.5.1,8.29.14,2.79.05,5.38.12,7.79.21v-3.55c0-3.79-.29-6.75-.86-8.89s-1.68-3.7-3.32-4.69c-1.64-1-3.99-1.64-7.07-1.92-3.08-.28-7.07-.43-11.97-.43-2.41,0-5.15.07-8.22.21-3.08.14-6.03.33-8.87.57-2.84.24-9.85-12.54-9.85-12.54,4.13-.76,27.23-.61,32.42-.61,5.77,0,10.62.33,14.57,1,3.94.66,7.11,1.71,9.52,3.13,2.4,1.42,4.23,3.27,5.48,5.55,1.25,2.28,2.09,4.98,2.52,8.1.43,3.13.65,6.78.65,10.95v44.93h-13.84l-.58-9.67h-.86c-1.73,3.22-4.11,5.62-7.14,7.18-3.03,1.56-6.3,2.56-9.81,2.99s-6.85.64-10.02.64ZM460.24,158.88c2.79,0,5.31-.16,7.57-.5,2.26-.33,4.25-.95,5.98-1.85,1.73-.9,3.08-2.15,4.04-3.77.96-1.71,1.68-3.63,2.16-5.76.48-2.13.72-4.57.72-7.32v-2.56h-24.23c-3.56,0-6.27.26-8.15.78-1.88.52-3.15,1.56-3.82,3.13-.67,1.56-1.01,3.91-1.01,7.04s.41,5.45,1.23,6.97c.82,1.52,2.43,2.54,4.83,3.06,2.4.52,5.96.78,10.67.78Z"/>
  <path d="M512.74,169.52l29.28-37.21-28.27-36.34h17.74l19.47,25.09h1.01l19.47-25.09h16.87l-28.27,35.91,29.56,37.64h-17.88l-20.48-26.39h-1.01l-20.62,26.39h-16.87Z"/>
</svg>